<mxfile host="app.diagrams.net" agent="Mozilla/5.0 (Windows NT 10.0; Win64; x64) AppleWebKit/537.36 (KHTML, like Gecko) Chrome/136.0.0.0 Safari/537.36" version="24.7.12">
  <diagram name="Page-1" id="IAlaBi5iFq2kDUpkA9bU">
    <mxGraphModel dx="1315" dy="702" grid="1" gridSize="10" guides="1" tooltips="1" connect="1" arrows="1" fold="1" page="1" pageScale="1" pageWidth="1169" pageHeight="827" math="0" shadow="0">
      <root>
        <mxCell id="0" />
        <mxCell id="1" parent="0" />
        <mxCell id="NOuEyFway61NfeCD6qG5-7" style="rounded=0;orthogonalLoop=1;jettySize=auto;html=1;exitX=1;exitY=0.5;exitDx=0;exitDy=0;startArrow=classic;startFill=1;" edge="1" parent="1" source="NOuEyFway61NfeCD6qG5-3" target="NOuEyFway61NfeCD6qG5-6">
          <mxGeometry relative="1" as="geometry" />
        </mxCell>
        <mxCell id="NOuEyFway61NfeCD6qG5-4" value="Module 1" style="rounded=0;whiteSpace=wrap;html=1;" vertex="1" parent="1">
          <mxGeometry x="1003" y="80" width="120" height="60" as="geometry" />
        </mxCell>
        <mxCell id="NOuEyFway61NfeCD6qG5-5" value="Module 2" style="rounded=0;whiteSpace=wrap;html=1;" vertex="1" parent="1">
          <mxGeometry x="1003" y="170" width="120" height="60" as="geometry" />
        </mxCell>
        <mxCell id="NOuEyFway61NfeCD6qG5-8" style="rounded=0;orthogonalLoop=1;jettySize=auto;html=1;entryX=0;entryY=0.5;entryDx=0;entryDy=0;startArrow=classic;startFill=1;" edge="1" parent="1" source="NOuEyFway61NfeCD6qG5-6" target="NOuEyFway61NfeCD6qG5-4">
          <mxGeometry relative="1" as="geometry" />
        </mxCell>
        <mxCell id="NOuEyFway61NfeCD6qG5-9" style="rounded=0;orthogonalLoop=1;jettySize=auto;html=1;entryX=0;entryY=0.5;entryDx=0;entryDy=0;startArrow=classic;startFill=1;" edge="1" parent="1" source="NOuEyFway61NfeCD6qG5-6" target="NOuEyFway61NfeCD6qG5-5">
          <mxGeometry relative="1" as="geometry" />
        </mxCell>
        <mxCell id="NOuEyFway61NfeCD6qG5-6" value="MQTT" style="ellipse;shape=cloud;whiteSpace=wrap;html=1;" vertex="1" parent="1">
          <mxGeometry x="823" y="110" width="120" height="80" as="geometry" />
        </mxCell>
        <mxCell id="NOuEyFway61NfeCD6qG5-21" value="Aspire" style="swimlane;whiteSpace=wrap;html=1;startSize=20;" vertex="1" parent="1">
          <mxGeometry x="50" y="50" width="740" height="280" as="geometry" />
        </mxCell>
        <mxCell id="NOuEyFway61NfeCD6qG5-1" value="Frontend" style="rounded=0;whiteSpace=wrap;html=1;" vertex="1" parent="NOuEyFway61NfeCD6qG5-21">
          <mxGeometry x="30" y="70" width="120" height="60" as="geometry" />
        </mxCell>
        <mxCell id="NOuEyFway61NfeCD6qG5-2" value="API" style="rounded=0;whiteSpace=wrap;html=1;" vertex="1" parent="NOuEyFway61NfeCD6qG5-21">
          <mxGeometry x="230" y="70" width="120" height="60" as="geometry" />
        </mxCell>
        <mxCell id="NOuEyFway61NfeCD6qG5-17" style="edgeStyle=orthogonalEdgeStyle;rounded=0;orthogonalLoop=1;jettySize=auto;html=1;exitX=0;exitY=0.5;exitDx=0;exitDy=0;entryX=1;entryY=0.5;entryDx=0;entryDy=0;startArrow=classic;startFill=1;" edge="1" parent="NOuEyFway61NfeCD6qG5-21" source="NOuEyFway61NfeCD6qG5-2" target="NOuEyFway61NfeCD6qG5-1">
          <mxGeometry relative="1" as="geometry" />
        </mxCell>
        <mxCell id="NOuEyFway61NfeCD6qG5-14" value="RabbitMQ" style="rounded=1;whiteSpace=wrap;html=1;" vertex="1" parent="NOuEyFway61NfeCD6qG5-21">
          <mxGeometry x="414.5" y="70" width="120" height="60" as="geometry" />
        </mxCell>
        <mxCell id="NOuEyFway61NfeCD6qG5-16" style="edgeStyle=orthogonalEdgeStyle;rounded=0;orthogonalLoop=1;jettySize=auto;html=1;exitX=0;exitY=0.5;exitDx=0;exitDy=0;entryX=1;entryY=0.5;entryDx=0;entryDy=0;startArrow=classic;startFill=1;" edge="1" parent="NOuEyFway61NfeCD6qG5-21" source="NOuEyFway61NfeCD6qG5-14" target="NOuEyFway61NfeCD6qG5-2">
          <mxGeometry relative="1" as="geometry" />
        </mxCell>
        <mxCell id="NOuEyFway61NfeCD6qG5-3" value="ConnectionService" style="rounded=0;whiteSpace=wrap;html=1;" vertex="1" parent="NOuEyFway61NfeCD6qG5-21">
          <mxGeometry x="590" y="70" width="120" height="60" as="geometry" />
        </mxCell>
        <mxCell id="NOuEyFway61NfeCD6qG5-15" style="edgeStyle=orthogonalEdgeStyle;rounded=0;orthogonalLoop=1;jettySize=auto;html=1;exitX=1;exitY=0.5;exitDx=0;exitDy=0;entryX=0;entryY=0.5;entryDx=0;entryDy=0;startArrow=classic;startFill=1;" edge="1" parent="NOuEyFway61NfeCD6qG5-21" source="NOuEyFway61NfeCD6qG5-14" target="NOuEyFway61NfeCD6qG5-3">
          <mxGeometry relative="1" as="geometry" />
        </mxCell>
        <mxCell id="NOuEyFway61NfeCD6qG5-32" value="Postgres" style="shape=cylinder3;whiteSpace=wrap;html=1;boundedLbl=1;backgroundOutline=1;size=15;" vertex="1" parent="NOuEyFway61NfeCD6qG5-21">
          <mxGeometry x="310" y="170" width="60" height="80" as="geometry" />
        </mxCell>
        <mxCell id="NOuEyFway61NfeCD6qG5-33" style="edgeStyle=orthogonalEdgeStyle;rounded=0;orthogonalLoop=1;jettySize=auto;html=1;exitX=0.75;exitY=1;exitDx=0;exitDy=0;entryX=0.5;entryY=0;entryDx=0;entryDy=0;entryPerimeter=0;startArrow=classic;startFill=1;" edge="1" parent="NOuEyFway61NfeCD6qG5-21" source="NOuEyFway61NfeCD6qG5-2" target="NOuEyFway61NfeCD6qG5-32">
          <mxGeometry relative="1" as="geometry" />
        </mxCell>
        <mxCell id="NOuEyFway61NfeCD6qG5-35" style="edgeStyle=orthogonalEdgeStyle;rounded=0;orthogonalLoop=1;jettySize=auto;html=1;exitX=0.5;exitY=0;exitDx=0;exitDy=0;exitPerimeter=0;entryX=0.25;entryY=1;entryDx=0;entryDy=0;startArrow=classic;startFill=1;" edge="1" parent="NOuEyFway61NfeCD6qG5-21" source="NOuEyFway61NfeCD6qG5-34" target="NOuEyFway61NfeCD6qG5-2">
          <mxGeometry relative="1" as="geometry" />
        </mxCell>
        <mxCell id="NOuEyFway61NfeCD6qG5-34" value="Redis" style="shape=cylinder3;whiteSpace=wrap;html=1;boundedLbl=1;backgroundOutline=1;size=15;" vertex="1" parent="NOuEyFway61NfeCD6qG5-21">
          <mxGeometry x="210" y="170" width="60" height="80" as="geometry" />
        </mxCell>
        <mxCell id="NOuEyFway61NfeCD6qG5-37" value="Postgres&lt;div&gt;2&lt;/div&gt;" style="shape=cylinder3;whiteSpace=wrap;html=1;boundedLbl=1;backgroundOutline=1;size=15;strokeColor=#000000;" vertex="1" parent="NOuEyFway61NfeCD6qG5-21">
          <mxGeometry x="620" y="170" width="60" height="80" as="geometry" />
        </mxCell>
        <mxCell id="NOuEyFway61NfeCD6qG5-38" style="edgeStyle=orthogonalEdgeStyle;rounded=0;orthogonalLoop=1;jettySize=auto;html=1;exitX=0.5;exitY=1;exitDx=0;exitDy=0;entryX=0.5;entryY=0;entryDx=0;entryDy=0;entryPerimeter=0;startArrow=classic;startFill=1;strokeColor=#000000;" edge="1" parent="NOuEyFway61NfeCD6qG5-21" source="NOuEyFway61NfeCD6qG5-3" target="NOuEyFway61NfeCD6qG5-37">
          <mxGeometry relative="1" as="geometry" />
        </mxCell>
      </root>
    </mxGraphModel>
  </diagram>
</mxfile>
